<?xml version="1.0" encoding="utf-8"?>
<!-- Generator: Adobe Illustrator 19.0.0, SVG Export Plug-In . SVG Version: 6.00 Build 0)  -->
<svg version="1.1" id="Layer_1" xmlns="http://www.w3.org/2000/svg" xmlns:xlink="http://www.w3.org/1999/xlink"  width="125" height="18" x="0px" y="0px"
	 viewBox="-243 347.4 122.2 18" style="enable-background:new -243 347.4 122.2 18;" xml:space="preserve">
<style type="text/css">
	.st0{fill:#FFFFFF;}
</style>
<title>Logo</title>
<path class="st0" d="M-175.3,352.7c0.3,0,0.5-0.2,0.5-0.5s-0.2-0.5-0.5-0.5c-1.2,0-2.2,1-2.2,2.2v2.5c0,0.3,0.2,0.5,0.5,0.5h1.7
	c0.3,0,0.5-0.2,0.5-0.5c0,0,0,0,0,0v-1.6c0-0.3-0.2-0.5-0.5-0.5c0,0,0,0,0,0h-1.2v-0.4C-176.5,353.2-175.9,352.7-175.3,352.7z"/>
<path class="st0" d="M-179.9,352.7c0.3,0,0.5-0.2,0.5-0.5s-0.2-0.5-0.5-0.5c-1.2,0-2.2,1-2.2,2.2v2.5c0,0.3,0.2,0.5,0.5,0.5h1.7
	c0.3,0,0.5-0.2,0.5-0.5v-1.6c0-0.3-0.2-0.5-0.5-0.5h-1.2v-0.4C-181.1,353.2-180.6,352.7-179.9,352.7z"/>
<path class="st0" d="M-178.5,361.5c1.3,0,2.6-0.8,3.3-1.9c0-0.1,0-0.2,0-0.2c0-0.1-0.1-0.1-0.2-0.1h-6.1c-0.1,0-0.2,0.1-0.2,0.2
	c0,0,0,0.1,0,0.1C-181,360.8-179.8,361.5-178.5,361.5z"/>
<path class="st0" d="M-241.9,348.2c-0.6,0-1.1,0.5-1.1,1.1v14.5c0,0.6,0.5,1.1,1.1,1.1s1.1-0.5,1.1-1.1v-14.5
	C-240.8,348.7-241.3,348.2-241.9,348.2C-241.9,348.2-241.9,348.2-241.9,348.2z"/>
<path class="st0" d="M-231.2,348.5c-0.4-0.4-1.1-0.4-1.6,0l-7.1,7.3c-0.4,0.4-0.4,1.1,0,1.6l7.1,7.3c0.5,0.4,1.2,0.4,1.6-0.1
	c0.4-0.4,0.4-1,0-1.5l-6.4-6.5l6.4-6.5C-230.8,349.7-230.8,349-231.2,348.5C-231.2,348.5-231.2,348.5-231.2,348.5z"/>
<path class="st0" d="M-216.9,348.2c-0.6,0-1.1,0.5-1.1,1.1v9.2c0.1,2.3-1.8,4.3-4.1,4.4s-4.3-1.8-4.4-4.1c0-0.1,0-0.2,0-0.3v-9.2
	c0-0.6-0.5-1.1-1.1-1.1s-1.1,0.5-1.1,1.1v9.2c-0.2,3.6,2.5,6.6,6.1,6.8c3.6,0.2,6.6-2.5,6.8-6.1c0-0.2,0-0.5,0-0.7v-9.2
	C-215.8,348.7-216.3,348.2-216.9,348.2C-216.9,348.2-216.9,348.2-216.9,348.2z"/>
<path class="st0" d="M-207.9,355.2c-3.9-0.9-3.6-2.6-3.5-3.3c0.1-0.7,0.6-1.2,1.3-1.4c1.7-0.6,3.6-0.3,5.1,0.6
	c0.5,0.4,1.2,0.2,1.6-0.3c0.4-0.5,0.2-1.2-0.3-1.6c-1.9-1.4-5.1-1.7-7.2-0.9c-1.4,0.5-2.4,1.7-2.6,3.1c-0.3,1.7,0,4.6,5.2,5.8
	c1.7,0.4,2.9,1.1,3.3,2c0.3,0.6,0.3,1.4-0.1,2c-0.3,0.8-1.2,1.1-1.9,1.3c-1.7,0.3-3.9-0.1-4.9-1.1c-0.4-0.4-1.2-0.4-1.6,0.1
	s-0.4,1.2,0.1,1.6l0,0c1.2,1.1,3.3,1.8,5.2,1.8c0.5,0,1.1-0.1,1.6-0.2c1.7-0.3,2.9-1.3,3.5-2.6c0.6-1.2,0.6-2.7,0-3.9
	C-203.9,356.9-205.6,355.7-207.9,355.2z"/>
<path class="st0" d="M-189.9,348.2h-10.8c-0.6,0-1.1,0.5-1.1,1.1c0,0.6,0.5,1.1,1.1,1.1h4.3v13.4c0,0.6,0.5,1.1,1.1,1.1
	s1.1-0.5,1.1-1.1v-13.4h4.3c0.6,0,1.1-0.5,1.1-1.1S-189.3,348.2-189.9,348.2L-189.9,348.2z"/>
<path class="st0" d="M-151.1,348.3c-0.4-0.2-0.9-0.1-1.2,0.2l-6.3,6.2l-6.3-6.2c-0.4-0.4-1.1-0.4-1.6,0c-0.2,0.2-0.3,0.5-0.3,0.8
	v14.5c0,0.6,0.5,1.1,1.1,1.1s1.1-0.5,1.1-1.1V352l5.2,5.1c0.4,0.4,1.1,0.4,1.6,0l5.2-5.1v11.9c0,0.6,0.5,1.1,1.1,1.1
	s1.1-0.5,1.1-1.1v-14.5C-150.4,348.9-150.7,348.5-151.1,348.3z"/>
<path class="st0" d="M-136.4,350.4c0.6,0,1.1-0.5,1.1-1.1s-0.5-1.1-1.1-1.1h-10.3c-0.6,0-1.1,0.5-1.1,1.1c0,0,0,0,0,0v14.5
	c0,0.6,0.5,1.1,1.1,1.1l0,0h10.3c0.6,0,1.1-0.5,1.1-1.1s-0.5-1.1-1.1-1.1h-9.2v-5.2h7.5c0.6,0,1.1-0.5,1.1-1.1s-0.5-1.1-1.1-1.1
	h-7.5v-4.9H-136.4z"/>
<path class="st0" d="M-124.1,358.6c2.7-1.2,4-4.4,2.8-7.1c-0.8-2-2.8-3.3-5-3.3h-6c-0.6,0-1.1,0.5-1.1,1.1c0,0,0,0,0,0v14.5
	c0,0.6,0.5,1.1,1.1,1.1c0.6,0,1.1-0.5,1.1-1.1V359h4.7l2.7,5.3c0.3,0.5,0.9,0.8,1.5,0.5s0.8-0.9,0.5-1.5l0,0L-124.1,358.6z
	 M-131.1,356.8v-6.4h4.9c1.8,0,3.2,1.4,3.2,3.2c0,1.8-1.4,3.2-3.2,3.2L-131.1,356.8z"/>
<path class="st0" d="M-175,347.4h-6.9c-3.1,0-5.5,2.5-5.5,5.6v6.9c0,3.1,2.5,5.5,5.6,5.6h4.7l-3.1-2.2h-1.6c-1.8,0-3.3-1.5-3.3-3.3
	V353c0-1.8,1.5-3.3,3.3-3.3h6.9c1.8,0,3.3,1.5,3.3,3.3v6.9c0,1.8-1.5,3.3-3.3,3.3h-1.3v2.2h1.3c3.1,0,5.5-2.5,5.6-5.6V353
	C-169.5,349.9-171.9,347.4-175,347.4z"/>
</svg>
